<mxfile host="app.diagrams.net" modified="2023-12-18T18:27:42.527Z" agent="Mozilla/5.0 (Windows NT 10.0; Win64; x64) AppleWebKit/537.36 (KHTML, like Gecko) Chrome/120.0.0.0 Safari/537.36" etag="Z4i2BJsILn8t99S_CmZ6" version="22.1.11" type="device">
  <diagram name="Страница — 1" id="w1xq7jZBInlsBDLsZTdN">
    <mxGraphModel dx="1311" dy="706" grid="1" gridSize="10" guides="1" tooltips="1" connect="1" arrows="1" fold="1" page="1" pageScale="1" pageWidth="827" pageHeight="1169" math="0" shadow="0">
      <root>
        <mxCell id="0" />
        <mxCell id="1" parent="0" />
        <mxCell id="fqSPiVFqXpXNG0xnGIIQ-3" value="" style="ellipse;html=1;shape=startState;fillColor=#000000;strokeColor=#ff0000;" vertex="1" parent="1">
          <mxGeometry x="399" y="50" width="30" height="30" as="geometry" />
        </mxCell>
        <mxCell id="fqSPiVFqXpXNG0xnGIIQ-4" value="" style="edgeStyle=orthogonalEdgeStyle;html=1;verticalAlign=bottom;endArrow=open;endSize=8;strokeColor=#ff0000;rounded=0;" edge="1" source="fqSPiVFqXpXNG0xnGIIQ-3" parent="1">
          <mxGeometry relative="1" as="geometry">
            <mxPoint x="414" y="140" as="targetPoint" />
          </mxGeometry>
        </mxCell>
        <mxCell id="fqSPiVFqXpXNG0xnGIIQ-7" value="no updates" style="edgeStyle=orthogonalEdgeStyle;rounded=0;orthogonalLoop=1;jettySize=auto;html=1;entryX=0.5;entryY=0;entryDx=0;entryDy=0;" edge="1" parent="1" source="fqSPiVFqXpXNG0xnGIIQ-5" target="fqSPiVFqXpXNG0xnGIIQ-6">
          <mxGeometry relative="1" as="geometry" />
        </mxCell>
        <mxCell id="fqSPiVFqXpXNG0xnGIIQ-13" value="Have updates" style="edgeStyle=orthogonalEdgeStyle;rounded=0;orthogonalLoop=1;jettySize=auto;html=1;exitX=0;exitY=0.5;exitDx=0;exitDy=0;entryX=1;entryY=0.5;entryDx=0;entryDy=0;" edge="1" parent="1" source="fqSPiVFqXpXNG0xnGIIQ-5" target="fqSPiVFqXpXNG0xnGIIQ-12">
          <mxGeometry relative="1" as="geometry" />
        </mxCell>
        <mxCell id="fqSPiVFqXpXNG0xnGIIQ-5" value="Check launcher update" style="html=1;whiteSpace=wrap;" vertex="1" parent="1">
          <mxGeometry x="359" y="140" width="110" height="50" as="geometry" />
        </mxCell>
        <mxCell id="fqSPiVFqXpXNG0xnGIIQ-9" style="edgeStyle=orthogonalEdgeStyle;rounded=0;orthogonalLoop=1;jettySize=auto;html=1;entryX=0.5;entryY=0;entryDx=0;entryDy=0;" edge="1" parent="1" source="fqSPiVFqXpXNG0xnGIIQ-6" target="fqSPiVFqXpXNG0xnGIIQ-8">
          <mxGeometry relative="1" as="geometry" />
        </mxCell>
        <mxCell id="fqSPiVFqXpXNG0xnGIIQ-6" value="Init launcher controller" style="html=1;whiteSpace=wrap;" vertex="1" parent="1">
          <mxGeometry x="358" y="250" width="110" height="50" as="geometry" />
        </mxCell>
        <mxCell id="fqSPiVFqXpXNG0xnGIIQ-17" style="edgeStyle=orthogonalEdgeStyle;rounded=0;orthogonalLoop=1;jettySize=auto;html=1;entryX=0.5;entryY=0;entryDx=0;entryDy=0;" edge="1" parent="1" source="fqSPiVFqXpXNG0xnGIIQ-8" target="fqSPiVFqXpXNG0xnGIIQ-11">
          <mxGeometry relative="1" as="geometry" />
        </mxCell>
        <mxCell id="fqSPiVFqXpXNG0xnGIIQ-19" style="edgeStyle=orthogonalEdgeStyle;rounded=0;orthogonalLoop=1;jettySize=auto;html=1;exitX=1;exitY=0.5;exitDx=0;exitDy=0;entryX=0.5;entryY=0;entryDx=0;entryDy=0;" edge="1" parent="1" source="fqSPiVFqXpXNG0xnGIIQ-8" target="fqSPiVFqXpXNG0xnGIIQ-18">
          <mxGeometry relative="1" as="geometry" />
        </mxCell>
        <mxCell id="fqSPiVFqXpXNG0xnGIIQ-23" style="edgeStyle=orthogonalEdgeStyle;rounded=0;orthogonalLoop=1;jettySize=auto;html=1;exitX=0.5;exitY=1;exitDx=0;exitDy=0;entryX=0.5;entryY=0;entryDx=0;entryDy=0;" edge="1" parent="1" source="fqSPiVFqXpXNG0xnGIIQ-8" target="fqSPiVFqXpXNG0xnGIIQ-22">
          <mxGeometry relative="1" as="geometry" />
        </mxCell>
        <mxCell id="fqSPiVFqXpXNG0xnGIIQ-8" value="Start launcher gui thread" style="html=1;whiteSpace=wrap;" vertex="1" parent="1">
          <mxGeometry x="358" y="360" width="110" height="50" as="geometry" />
        </mxCell>
        <mxCell id="fqSPiVFqXpXNG0xnGIIQ-28" value="Send start game command" style="edgeStyle=orthogonalEdgeStyle;rounded=0;orthogonalLoop=1;jettySize=auto;html=1;exitX=0.25;exitY=0;exitDx=0;exitDy=0;entryX=0;entryY=0.75;entryDx=0;entryDy=0;" edge="1" parent="1" source="fqSPiVFqXpXNG0xnGIIQ-11" target="fqSPiVFqXpXNG0xnGIIQ-6">
          <mxGeometry relative="1" as="geometry" />
        </mxCell>
        <mxCell id="fqSPiVFqXpXNG0xnGIIQ-11" value="Start game" style="html=1;whiteSpace=wrap;" vertex="1" parent="1">
          <mxGeometry x="150" y="410" width="110" height="50" as="geometry" />
        </mxCell>
        <mxCell id="fqSPiVFqXpXNG0xnGIIQ-15" style="edgeStyle=orthogonalEdgeStyle;rounded=0;orthogonalLoop=1;jettySize=auto;html=1;entryX=0.5;entryY=0;entryDx=0;entryDy=0;" edge="1" parent="1" source="fqSPiVFqXpXNG0xnGIIQ-12" target="fqSPiVFqXpXNG0xnGIIQ-14">
          <mxGeometry relative="1" as="geometry" />
        </mxCell>
        <mxCell id="fqSPiVFqXpXNG0xnGIIQ-12" value="Load updates" style="html=1;whiteSpace=wrap;" vertex="1" parent="1">
          <mxGeometry x="150" y="140" width="110" height="50" as="geometry" />
        </mxCell>
        <mxCell id="fqSPiVFqXpXNG0xnGIIQ-16" style="edgeStyle=orthogonalEdgeStyle;rounded=0;orthogonalLoop=1;jettySize=auto;html=1;exitX=0;exitY=0.5;exitDx=0;exitDy=0;entryX=0;entryY=0.5;entryDx=0;entryDy=0;" edge="1" parent="1" source="fqSPiVFqXpXNG0xnGIIQ-14" target="fqSPiVFqXpXNG0xnGIIQ-3">
          <mxGeometry relative="1" as="geometry" />
        </mxCell>
        <mxCell id="fqSPiVFqXpXNG0xnGIIQ-14" value="Reload launcher" style="html=1;whiteSpace=wrap;" vertex="1" parent="1">
          <mxGeometry x="150" y="220" width="110" height="50" as="geometry" />
        </mxCell>
        <mxCell id="fqSPiVFqXpXNG0xnGIIQ-18" value="Show settings" style="html=1;whiteSpace=wrap;" vertex="1" parent="1">
          <mxGeometry x="560" y="410" width="110" height="50" as="geometry" />
        </mxCell>
        <mxCell id="fqSPiVFqXpXNG0xnGIIQ-25" style="edgeStyle=orthogonalEdgeStyle;rounded=0;orthogonalLoop=1;jettySize=auto;html=1;exitX=0.5;exitY=1;exitDx=0;exitDy=0;entryX=0.5;entryY=0;entryDx=0;entryDy=0;" edge="1" parent="1" source="fqSPiVFqXpXNG0xnGIIQ-20" target="fqSPiVFqXpXNG0xnGIIQ-24">
          <mxGeometry relative="1" as="geometry" />
        </mxCell>
        <mxCell id="fqSPiVFqXpXNG0xnGIIQ-20" value="Create new thread and run game inside" style="html=1;whiteSpace=wrap;" vertex="1" parent="1">
          <mxGeometry x="700" y="510" width="110" height="50" as="geometry" />
        </mxCell>
        <mxCell id="fqSPiVFqXpXNG0xnGIIQ-22" value="Load and show news" style="html=1;whiteSpace=wrap;" vertex="1" parent="1">
          <mxGeometry x="358" y="470" width="110" height="50" as="geometry" />
        </mxCell>
        <mxCell id="fqSPiVFqXpXNG0xnGIIQ-27" value="If game was closed" style="edgeStyle=orthogonalEdgeStyle;rounded=0;orthogonalLoop=1;jettySize=auto;html=1;exitX=0.5;exitY=1;exitDx=0;exitDy=0;entryX=0.75;entryY=0;entryDx=0;entryDy=0;" edge="1" parent="1" source="fqSPiVFqXpXNG0xnGIIQ-24" target="fqSPiVFqXpXNG0xnGIIQ-8">
          <mxGeometry x="-0.8393" relative="1" as="geometry">
            <mxPoint x="755" y="690" as="targetPoint" />
            <Array as="points">
              <mxPoint x="755" y="670" />
              <mxPoint x="690" y="670" />
              <mxPoint x="690" y="340" />
              <mxPoint x="441" y="340" />
            </Array>
            <mxPoint as="offset" />
          </mxGeometry>
        </mxCell>
        <mxCell id="fqSPiVFqXpXNG0xnGIIQ-24" value="Hide launcher window" style="html=1;whiteSpace=wrap;" vertex="1" parent="1">
          <mxGeometry x="700" y="600" width="110" height="50" as="geometry" />
        </mxCell>
        <mxCell id="fqSPiVFqXpXNG0xnGIIQ-29" style="edgeStyle=orthogonalEdgeStyle;rounded=0;orthogonalLoop=1;jettySize=auto;html=1;exitX=1;exitY=0.5;exitDx=0;exitDy=0;entryX=0.5;entryY=0;entryDx=0;entryDy=0;" edge="1" parent="1" source="fqSPiVFqXpXNG0xnGIIQ-6" target="fqSPiVFqXpXNG0xnGIIQ-20">
          <mxGeometry relative="1" as="geometry">
            <mxPoint x="754" y="503" as="targetPoint" />
          </mxGeometry>
        </mxCell>
      </root>
    </mxGraphModel>
  </diagram>
</mxfile>
